<svg xmlns="http://www.w3.org/2000/svg" width="730.001" height="73.997" viewBox="0 0 730.001 73.997">
  <g id="Composant_11_1" data-name="Composant 11 – 1" transform="translate(0)">
    <path id="Tracé_3343" data-name="Tracé 3343" d="M117.982,125.611a3.121,3.121,0,0,0-2.412-.008,2.712,2.712,0,0,0-1.631,1.581l-12.807,28.709L88.351,127.257a2.739,2.739,0,0,0-1.676-1.645,3.473,3.473,0,0,0-1.351-.3,2.824,2.824,0,0,0-2.606,1.85,2.581,2.581,0,0,0-.008,2.247l15.564,35.066a3.747,3.747,0,0,0,.916,1.223l.276.189a4.344,4.344,0,0,0,1.877.428,2.613,2.613,0,0,0,2-.879,3.165,3.165,0,0,0,.761-1.356l15.45-34.68a2.63,2.63,0,0,0-1.574-3.792" transform="translate(-82.457 -109.421)" fill="#fff"/>
    <path id="Tracé_3344" data-name="Tracé 3344" d="M130.376,126.072a2.81,2.81,0,0,0-.9,2.078v35.235a2.8,2.8,0,0,0,.9,2.077,3.137,3.137,0,0,0,2.2.858,3.288,3.288,0,0,0,2.212-.833,2.744,2.744,0,0,0,.975-2.1V128.151a2.808,2.808,0,0,0-.906-2.079,3.4,3.4,0,0,0-4.477,0" transform="translate(-81.46 -109.423)" fill="#fff"/>
    <path id="Tracé_3345" data-name="Tracé 3345" d="M174.488,145.362a32.067,32.067,0,0,0-10.6-3.319,20.472,20.472,0,0,1-7.964-2.519,4.082,4.082,0,0,1-1.961-3.289c0-1.218.8-2.449,2.392-3.655a11.472,11.472,0,0,1,7.032-1.9,11.215,11.215,0,0,1,3.536.622,17.666,17.666,0,0,1,2.9,1.195c.694.394,1.735,1.039,3.154,1.952a3.187,3.187,0,0,0,2.3.376,2.934,2.934,0,0,0,1.967-1.256,2.812,2.812,0,0,0,.4-2.178,3.072,3.072,0,0,0-1.326-1.939q-2.318-1.382-3.652-2.075a24.771,24.771,0,0,0-3.995-1.516,18.154,18.154,0,0,0-5.28-.81A19.424,19.424,0,0,0,152.6,127.89c-3.267,2.272-4.922,5.135-4.922,8.5,0,3.417,1.687,6.083,4.928,7.868,2.012,1.387,5.229,2.441,9.713,3.212l.305.092c3.915.611,6.753,1.564,8.432,2.835a5.113,5.113,0,0,1,2.392,3.993c.022,1.436-.832,2.689-2.691,3.883-1.883,1.445-4.532,2.177-7.876,2.177-3.361,0-7.192-1.471-11.313-4.317a3.11,3.11,0,0,0-2.021-.74l-.311.015a2.946,2.946,0,0,0-2.074,1.084,2.567,2.567,0,0,0,.41,4,26.562,26.562,0,0,0,15.977,5.83h.011a18.888,18.888,0,0,0,11.089-3.443c3.349-2.355,5.046-5.352,5.046-8.9,0-3.577-1.728-6.464-5.205-8.616" transform="translate(-81.102 -109.427)" fill="#fff"/>
    <path id="Tracé_3346" data-name="Tracé 3346" d="M189.073,126.072a2.808,2.808,0,0,0-.906,2.078v35.235a2.8,2.8,0,0,0,.906,2.077,3.134,3.134,0,0,0,2.195.858,3.288,3.288,0,0,0,2.212-.833,2.745,2.745,0,0,0,.976-2.1V128.151a2.806,2.806,0,0,0-.908-2.079,3.4,3.4,0,0,0-4.475,0" transform="translate(-80.216 -109.423)" fill="#fff"/>
    <path id="Tracé_3347" data-name="Tracé 3347" d="M225.363,160.454a13.748,13.748,0,0,1-10.18-4.327,14.867,14.867,0,0,1,0-20.961,14.142,14.142,0,0,1,20.361,0,14.867,14.867,0,0,1,0,20.961,13.748,13.748,0,0,1-10.18,4.327m0-35.406a20.781,20.781,0,1,0,14.659,6.127,19.967,19.967,0,0,0-14.659-6.127" transform="translate(-79.867 -109.427)" fill="#fff"/>
    <path id="Tracé_3348" data-name="Tracé 3348" d="M271.44,125.127a16.762,16.762,0,0,0-11.33,4.163v-1.227a2.881,2.881,0,0,0-.837-2.054,3.23,3.23,0,0,0-4.375-.024,2.808,2.808,0,0,0-.906,2.078v35.805l.086.4.029.054a1.239,1.239,0,0,0,.225.5,3.1,3.1,0,0,0,1.973,1.466l.79.034a2.915,2.915,0,0,0,2.985-2.368l.031-21.841a10.888,10.888,0,0,1,3.581-7.888,12.12,12.12,0,0,1,16.507.037,10.369,10.369,0,0,1,3.417,7.82v21.305a2.8,2.8,0,0,0,.9,2.077,3.241,3.241,0,0,0,4.393,0,2.808,2.808,0,0,0,.9-2.077V142.082a15.97,15.97,0,0,0-5.262-11.973,18.423,18.423,0,0,0-13.113-4.982" transform="translate(-78.821 -109.425)" fill="#fff"/>
    <path id="Tracé_3349" data-name="Tracé 3349" d="M326.608,145.362a32.073,32.073,0,0,0-10.6-3.319,20.46,20.46,0,0,1-7.963-2.519,4.082,4.082,0,0,1-1.961-3.289c0-1.218.8-2.449,2.391-3.655a11.475,11.475,0,0,1,7.033-1.9,11.225,11.225,0,0,1,3.536.622,17.665,17.665,0,0,1,2.9,1.195c.694.394,1.735,1.039,3.154,1.952a3.189,3.189,0,0,0,2.3.376,2.934,2.934,0,0,0,1.967-1.256,2.816,2.816,0,0,0,.4-2.178,3.074,3.074,0,0,0-1.327-1.939q-2.316-1.382-3.651-2.075a24.847,24.847,0,0,0-3.995-1.516,18.16,18.16,0,0,0-5.28-.81,19.42,19.42,0,0,0-10.789,2.841c-3.267,2.272-4.923,5.135-4.923,8.5,0,3.417,1.687,6.083,4.927,7.868,2.014,1.387,5.231,2.441,9.714,3.212l.305.092c3.915.611,6.753,1.564,8.433,2.835a5.115,5.115,0,0,1,2.391,3.993c.023,1.436-.831,2.689-2.69,3.883-1.883,1.445-4.532,2.177-7.876,2.177-3.361,0-7.192-1.471-11.313-4.317a3.112,3.112,0,0,0-2.021-.74l-.311.015a2.946,2.946,0,0,0-2.074,1.084,2.567,2.567,0,0,0,.409,4,26.559,26.559,0,0,0,15.976,5.83h.011a18.891,18.891,0,0,0,11.09-3.443c3.349-2.355,5.046-5.352,5.046-8.9,0-3.577-1.729-6.464-5.205-8.616" transform="translate(-77.877 -109.427)" fill="#fff"/>
    <path id="Tracé_3350" data-name="Tracé 3350" d="M462.646,125.127a16.759,16.759,0,0,0-11.329,4.163v-1.227a2.881,2.881,0,0,0-.838-2.054,3.229,3.229,0,0,0-4.374-.024,2.809,2.809,0,0,0-.907,2.078v35.805l.086.4.03.054a1.251,1.251,0,0,0,.224.5,3.107,3.107,0,0,0,1.974,1.466l.789.034a2.914,2.914,0,0,0,2.985-2.368l.032-21.841a10.891,10.891,0,0,1,3.58-7.888,12.121,12.121,0,0,1,16.508.037,10.367,10.367,0,0,1,3.415,7.82v21.305a2.8,2.8,0,0,0,.907,2.077,3.24,3.24,0,0,0,4.392,0,2.806,2.806,0,0,0,.9-2.077V142.082a15.971,15.971,0,0,0-5.263-11.973,18.422,18.422,0,0,0-13.113-4.982" transform="translate(-74.768 -109.425)" fill="#fff"/>
    <path id="Tracé_3351" data-name="Tracé 3351" d="M510.7,160.454a13.747,13.747,0,0,1-10.179-4.327,14.867,14.867,0,0,1,0-20.961,14.142,14.142,0,0,1,20.361,0,14.867,14.867,0,0,1,0,20.961,13.75,13.75,0,0,1-10.181,4.327m0-35.406a20.781,20.781,0,1,0,14.66,6.127,19.963,19.963,0,0,0-14.66-6.127" transform="translate(-73.818 -109.427)" fill="#fff"/>
    <path id="Tracé_3352" data-name="Tracé 3352" d="M570.071,125.805a2.749,2.749,0,0,0-.972,2.1v21.389a10.263,10.263,0,0,1-3.449,7.85,11.949,11.949,0,0,1-8.327,3.311,11.717,11.717,0,0,1-8.232-3.307,10.311,10.311,0,0,1-3.41-7.854V127.9a2.808,2.808,0,0,0-.907-2.078,3.282,3.282,0,0,0-4.391,0,2.808,2.808,0,0,0-.907,2.077v21.389a16.105,16.105,0,0,0,5.22,12.046,18.7,18.7,0,0,0,25.424,0,16.057,16.057,0,0,0,5.266-12.049V127.9a2.808,2.808,0,0,0-.907-2.078,3.322,3.322,0,0,0-4.409-.021" transform="translate(-72.77 -109.428)" fill="#fff"/>
    <path id="Tracé_3353" data-name="Tracé 3353" d="M620.176,125.611a3.121,3.121,0,0,0-2.412-.008,2.713,2.713,0,0,0-1.631,1.581l-12.808,28.709-12.78-28.635a2.738,2.738,0,0,0-1.676-1.645,3.472,3.472,0,0,0-1.351-.3,2.824,2.824,0,0,0-2.606,1.85,2.584,2.584,0,0,0-.009,2.247l15.566,35.066a3.758,3.758,0,0,0,.915,1.223l.277.189a4.34,4.34,0,0,0,1.876.428,2.612,2.612,0,0,0,2-.879,3.178,3.178,0,0,0,.762-1.356L621.75,129.4a2.63,2.63,0,0,0-1.574-3.792" transform="translate(-71.812 -109.421)" fill="#fff"/>
    <path id="Tracé_3354" data-name="Tracé 3354" d="M662.289,141.629H633.566a15.09,15.09,0,0,1,23.928-7.353,14.025,14.025,0,0,1,4.8,7.353m.124-11.044a20.8,20.8,0,0,0-14.586-5.536,20.507,20.507,0,0,0-14.819,6.077,20.281,20.281,0,0,0,0,29.164,20.827,20.827,0,0,0,15.027,6.034,21.066,21.066,0,0,0,10.135-2.537,20.794,20.794,0,0,0,7.54-6.847c.97-1.531.614-3.017-1.044-4.113a3.507,3.507,0,0,0-1.726-.5,2.83,2.83,0,0,0-2.447,1.487,14.271,14.271,0,0,1-5.29,4.854,14.9,14.9,0,0,1-7.169,1.789,14.536,14.536,0,0,1-10.337-4.036,14.029,14.029,0,0,1-4.587-9h32.865a3.308,3.308,0,0,0,2.138-.726,2.561,2.561,0,0,0,.963-2.049l0-.4a20.493,20.493,0,0,0-6.663-13.657" transform="translate(-70.918 -109.427)" fill="#fff"/>
    <path id="Tracé_3355" data-name="Tracé 3355" d="M680.416,125.3a2.807,2.807,0,0,0-.9,2.079V163.4a2.8,2.8,0,0,0,.9,2.076,3.133,3.133,0,0,0,2.2.859,3.255,3.255,0,0,0,2.212-.833,2.745,2.745,0,0,0,.976-2.1V127.384a2.751,2.751,0,0,0-.978-2.1,3.322,3.322,0,0,0-4.405.026" transform="translate(-69.801 -109.439)" fill="#fff"/>
    <path id="Tracé_3356" data-name="Tracé 3356" d="M699.519,125.3a2.809,2.809,0,0,0-.906,2.079V163.4a2.8,2.8,0,0,0,.906,2.076,3.127,3.127,0,0,0,2.194.859,3.254,3.254,0,0,0,2.212-.833,2.745,2.745,0,0,0,.976-2.1V127.384a2.751,2.751,0,0,0-.978-2.1,3.319,3.319,0,0,0-4.4.026" transform="translate(-69.396 -109.439)" fill="#fff"/>
    <path id="Tracé_3357" data-name="Tracé 3357" d="M751.384,141.629H722.661a15.09,15.09,0,0,1,23.928-7.353,14.032,14.032,0,0,1,4.8,7.353m.123-11.044a20.794,20.794,0,0,0-14.587-5.536,20.514,20.514,0,0,0-14.819,6.077,20.283,20.283,0,0,0,0,29.164,20.829,20.829,0,0,0,15.027,6.034,21.073,21.073,0,0,0,10.136-2.537,20.818,20.818,0,0,0,7.539-6.847c.97-1.531.613-3.017-1.046-4.113a3.5,3.5,0,0,0-1.724-.5,2.829,2.829,0,0,0-2.448,1.487,14.277,14.277,0,0,1-5.289,4.854,14.9,14.9,0,0,1-7.17,1.789,14.535,14.535,0,0,1-10.337-4.036,14.028,14.028,0,0,1-4.586-9h32.864a3.312,3.312,0,0,0,2.138-.726,2.561,2.561,0,0,0,.964-2.049l0-.4a20.494,20.494,0,0,0-6.664-13.657" transform="translate(-69.03 -109.427)" fill="#fff"/>
    <path id="Tracé_3358" data-name="Tracé 3358" d="M792.791,145.362a32.067,32.067,0,0,0-10.6-3.319,20.472,20.472,0,0,1-7.964-2.519,4.082,4.082,0,0,1-1.961-3.289c0-1.218.8-2.449,2.392-3.655a11.469,11.469,0,0,1,7.032-1.9,11.214,11.214,0,0,1,3.536.622,17.668,17.668,0,0,1,2.9,1.195c.694.394,1.735,1.039,3.154,1.952a3.187,3.187,0,0,0,2.3.376,2.936,2.936,0,0,0,1.967-1.256,2.812,2.812,0,0,0,.4-2.178,3.072,3.072,0,0,0-1.326-1.939q-2.318-1.382-3.652-2.075a24.774,24.774,0,0,0-3.995-1.516,18.155,18.155,0,0,0-5.28-.81A19.425,19.425,0,0,0,770.9,127.89c-3.267,2.272-4.922,5.135-4.922,8.5,0,3.417,1.686,6.083,4.927,7.868,2.013,1.387,5.23,2.441,9.714,3.212l.305.092c3.915.611,6.753,1.564,8.432,2.835a5.114,5.114,0,0,1,2.392,3.993c.022,1.436-.832,2.689-2.691,3.883-1.883,1.445-4.532,2.177-7.876,2.177-3.361,0-7.192-1.471-11.313-4.317a3.11,3.11,0,0,0-2.021-.74l-.312.015a2.946,2.946,0,0,0-2.073,1.084,2.567,2.567,0,0,0,.409,4,26.56,26.56,0,0,0,15.977,5.83h.011a18.89,18.89,0,0,0,11.089-3.443c3.348-2.355,5.046-5.352,5.046-8.9,0-3.577-1.729-6.464-5.205-8.616" transform="translate(-67.996 -109.427)" fill="#fff"/>
    <path id="Tracé_3359" data-name="Tracé 3359" d="M390.894,175.819c-.644.049-1.28.066-1.913.066a29.171,29.171,0,0,1-29.031-27.218,29.1,29.1,0,0,1,27.193-30.974c.619-.051,1.266-.079,1.885-.079a29.133,29.133,0,0,1,1.865,58.2m-1.865-66.068c-.819,0-1.691.038-2.467.1a36.989,36.989,0,0,0,2.419,73.9c.822,0,1.657-.023,2.466-.085a37,37,0,0,0-2.418-73.912" transform="translate(-76.743 -109.751)" fill="#fff"/>
    <path id="Tracé_3360" data-name="Tracé 3360" d="M394.547,149.237c-.249.009-.484.032-.733.032a11.081,11.081,0,0,1-.731-22.136c.253-.016.5-.018.731-.018a11.074,11.074,0,0,1,.733,22.123" transform="translate(-76.092 -109.383)" fill="#fff"/>
  </g>
</svg>
